# xmcd
#
# Track frame offsets:
# 150
# 13593
# 33746
# 61806
# 84179
# 97365
# 127604
# 144436
# 157487
# 176245
# 198898
# 219752
# 239605
# 261631
# 273831
# 291556
# 314555
#
# Disc length: 4374 seconds
#
# Revision: 1
# Processed by: cddbd v1.4PL0 Copyright (c) Steve Scherf et al.
# Submitted via: CedeCatalogueitor 2.5 http://usuarios.lycos.es/kakasboy
#
DISCID=05111411
DTITLE=Gary Moore - The Best Of The Blues CD1
DYEAR=2002
DGENRE=
TTITLE0=Walking By Myself
TTITLE1=Oh Pretty Woman
TTITLE2=Still Got The Blues
TTITLE3=Separate Ways
TTITLE4=Since I Met You Baby
TTITLE5=Story Of The Blues
TTITLE6=All Your Love
TTITLE7=Too Tired
TTITLE8=Need Your Love So Bad
TTITLE9=Midnight Blues
TTITLE10=King Of The Blues
TTITLE11=Jumpin' At Shadows
TTITLE12=Texas Strut
TTITLE13=Moving On
TTITLE14=Stop Messin' Around
TTITLE15=Parisienne Walkways-93'
TTITLE16=The Supernatural
EXTD=
EXTT0=
EXTT1=
EXTT2=
EXTT3=
EXTT4=
EXTT5=
EXTT6=
EXTT7=
EXTT8=
EXTT9=
EXTT10=
EXTT11=
EXTT12=
EXTT13=
EXTT14=
EXTT15=
EXTT16=
PLAYORDER=
